# xmcd
#
# Track frame offsets: 
#        150
#        21033
#        45763
#        72608
#        102475
#        117583
#        143113
#        172173
#        190575
#        209763
#        231375
#
# Disc length: 3319 seconds
#
# Revision: 3
# Processed by: cddbd v1.5.2PL0 Copyright (c) Steve Scherf et al.
# Submitted via: ExactAudioCopy v0.99pb5
#
DISCID=a50cf50b
DTITLE=Joe Louis Walker - JLW
DYEAR=1994
DGENRE=Blues
TTITLE0=I Can't Get You Off My Mind
TTITLE1=I Need Your Lovin' Every Day
TTITLE2=Rain On My Mind
TTITLE3=Inner City Man
TTITLE4=On That Powerline
TTITLE5=Hold On
TTITLE6=12-Step Lovin'
TTITLE7=Alone
TTITLE8=Got To Find My Baby
TTITLE9=Lost The Will To Love Me
TTITLE10=Going To Canada
EXTD=
EXTT0=
EXTT1=
EXTT2=
EXTT3=
EXTT4=
EXTT5=
EXTT6=
EXTT7=
EXTT8=
EXTT9=
EXTT10=
PLAYORDER=
